<?xml version="1.0" encoding="iso-8859-1"?>
<!-- Uploaded to: SVG Repo, www.svgrepo.com, Generator: SVG Repo Mixer Tools -->
<!DOCTYPE svg PUBLIC "-//W3C//DTD SVG 1.1//EN" "http://www.w3.org/Graphics/SVG/1.1/DTD/svg11.dtd">
<svg fill="#000000" version="1.1" id="Capa_1" xmlns="http://www.w3.org/2000/svg" xmlns:xlink="http://www.w3.org/1999/xlink" 
	 width="800px" height="800px" viewBox="0 0 556.422 556.423"
	 xml:space="preserve">
<g>
	<g id="iconos_8_">
		<path d="M135.596,426.698l-2.189,61.993l23.801,9.534l22.175-55.396c-3.547,1.07-7.239,1.826-11.14,1.826
			C154.521,444.656,142.51,437.465,135.596,426.698z"/>
		<path d="M388.18,444.656c-4.38,0-8.511-0.89-12.44-2.229l22.338,55.798l23.801-9.534l-2.133-60.416
			C412.699,438.153,401.213,444.656,388.18,444.656z"/>
		<polygon points="131.484,556.423 144.786,517.57 132.632,511.594 		"/>
		<path d="M431.632,551.249c3.395-1.434,5.307-4.57,4.284-6.999l-12.775-33.728l-12.278,5.192l12.775,33.728
			C424.661,551.871,428.247,552.684,431.632,551.249z"/>
		<circle cx="168.243" cy="405.813" r="19.718"/>
		<circle cx="388.18" cy="405.813" r="19.718"/>
		<path d="M280.602,90.05c5.719,0,11.293,0.593,16.734,1.588V76.5h19.125V0h-66.938v76.5h19.125v14.401
			C272.569,90.395,276.547,90.05,280.602,90.05z"/>
		<path d="M206.493,183.284c0,13.55,3.691,26.211,10.041,37.131c8.683,14.946,22.415,26.536,38.881,32.494
			c7.87,2.85,16.323,4.484,25.178,4.484c6.924,0,13.588-1.023,19.938-2.792c16.571-4.628,30.771-14.832,40.478-28.506
			c8.606-12.097,13.703-26.852,13.703-42.812c0-40.927-33.182-74.109-74.109-74.109S206.493,142.347,206.493,183.284z
			 M280.602,149.815c18.484,0,33.469,14.985,33.469,33.469c0,18.484-14.984,33.469-33.469,33.469s-33.469-14.984-33.469-33.469
			C247.133,164.8,262.118,149.815,280.602,149.815z"/>
		<path d="M106.086,306v28.688h28.688v-9.562h39.847l-17.471,43.644c3.538-1.062,7.219-1.808,11.102-1.808
			c14.439,0,26.918,8.014,33.612,19.737l24.643-61.573h42.142v29.586c0,4.781,3.882,8.664,8.664,8.664h1.797
			c4.781,0,8.664-3.883,8.664-8.664v-29.586h41.004l25.13,62.777c6.503-12.383,19.336-20.941,34.272-20.941
			c3.404,0,6.655,0.583,9.802,1.405l-17.309-43.241h40.976v9.562h28.688V306h-28.688v9.562h-44.81l-27.731-69.261
			c-11.121,12.078-25.321,21.267-41.415,26.172l17.26,43.089h-37.179v-20.023c0-4.781-3.883-8.664-8.664-8.664h-1.797
			c-4.781,0-8.664,3.883-8.664,8.664v20.023h-38.308l17.987-44.925c-15.921-5.9-29.825-15.969-40.296-28.965l-29.586,73.89h-43.672
			V306H106.086z"/>
	</g>
</g>
</svg>